<?xml version="1.0" standalone="no"?>
<!DOCTYPE svg PUBLIC "-//W3C//DTD SVG 20010904//EN"
 "http://www.w3.org/TR/2001/REC-SVG-20010904/DTD/svg10.dtd">
<svg version="1.0" xmlns="http://www.w3.org/2000/svg"
 width="750.000000pt" height="692.000000pt" viewBox="0 0 750.000000 692.000000"
 preserveAspectRatio="xMidYMid meet">

<g transform="translate(0.000000,692.000000) scale(0.100000,-0.100000)"
fill="#000000" stroke="none">
<path d="M3705 6910 c-3 -5 -17 -10 -29 -10 -31 0 -113 -73 -131 -117 -56
-133 45 -283 190 -283 69 0 115 20 158 71 47 55 64 123 46 187 -16 58 -95 142
-133 142 -14 0 -28 5 -31 10 -3 6 -19 10 -35 10 -16 0 -32 -4 -35 -10z"/>
<path d="M5460 6707 c-63 -30 -92 -77 -92 -149 1 -96 64 -158 162 -158 50 0
61 4 98 36 116 99 49 286 -102 283 -23 0 -52 -6 -66 -12z"/>
<path d="M1893 6704 c-40 -9 -91 -71 -98 -119 -17 -113 48 -195 155 -195 92 0
160 67 160 156 0 53 -30 115 -68 140 -24 16 -110 26 -149 18z"/>
<path d="M4995 5988 c-149 -39 -226 -205 -161 -351 60 -137 244 -186 371 -99
107 74 137 235 64 346 -33 49 -70 76 -139 100 -51 18 -78 18 -135 4z"/>
<path d="M2365 5984 c-200 -50 -261 -303 -105 -436 47 -41 97 -58 169 -58 203
0 317 252 185 409 -41 50 -103 80 -170 85 -32 3 -68 3 -79 0z"/>
<path d="M3615 5756 c-102 -48 -165 -148 -166 -262 -1 -129 54 -217 171 -272
144 -68 320 -3 389 143 31 67 31 184 -1 252 -25 54 -79 111 -123 132 -17 7
-38 17 -47 22 -10 5 -53 9 -95 8 -60 0 -90 -6 -128 -23z"/>
<path d="M6465 5271 c-80 -36 -122 -114 -112 -208 7 -66 34 -112 89 -149 36
-23 54 -28 109 -28 125 -2 209 78 209 198 0 70 -20 116 -70 159 -60 51 -150
63 -225 28z"/>
<path d="M844 5265 c-67 -30 -124 -117 -124 -190 0 -74 59 -161 129 -191 43
-18 119 -18 164 1 49 20 103 87 117 144 31 128 -70 252 -205 250 -27 0 -64 -7
-81 -14z"/>
<path d="M3060 4979 c-135 -23 -279 -125 -345 -244 -47 -85 -65 -155 -65 -255
0 -214 129 -398 330 -471 52 -19 85 -23 170 -24 65 0 118 5 140 14 156 60 244
132 306 251 37 71 47 112 51 220 4 89 -4 147 -28 192 -5 10 -9 23 -9 28 0 18
-76 123 -117 161 -109 104 -281 155 -433 128z"/>
<path d="M4230 4980 c-25 -5 -79 -26 -120 -46 -143 -71 -241 -206 -270 -373
-35 -206 79 -429 265 -520 91 -45 131 -54 235 -54 175 0 314 72 410 213 223
328 5 768 -390 785 -47 2 -105 0 -130 -5z"/>
<path d="M5407 4756 c-131 -49 -205 -161 -195 -297 6 -82 35 -144 92 -197 64
-59 106 -75 201 -75 62 0 90 5 126 22 136 65 203 231 150 373 -25 65 -81 127
-143 159 -54 28 -175 36 -231 15z"/>
<path d="M1854 4735 c-57 -28 -102 -72 -135 -130 -26 -48 -37 -160 -20 -221
38 -141 219 -245 352 -203 102 32 158 79 199 166 28 60 28 186 0 246 -28 59
-85 115 -145 143 -72 34 -182 34 -251 -1z"/>
<path d="M4835 3954 c-143 -34 -241 -99 -316 -210 -27 -40 -49 -78 -49 -84 0
-6 -4 -18 -9 -28 -35 -65 -40 -219 -11 -313 19 -60 56 -138 70 -149 3 -3 16
-20 29 -37 22 -33 123 -109 171 -130 203 -90 429 -47 576 109 78 83 118 165
134 277 31 217 -81 428 -277 523 -77 37 -89 40 -190 43 -59 2 -117 2 -128 -1z"/>
<path d="M2415 3939 c-167 -55 -298 -191 -341 -354 -21 -78 -18 -214 7 -287
49 -147 177 -278 309 -317 25 -7 58 -17 74 -22 44 -13 154 -11 215 6 162 43
308 174 353 320 45 144 38 263 -25 395 -23 46 -30 57 -81 117 -40 47 -128 105
-199 131 -47 18 -78 22 -170 21 -62 0 -125 -5 -142 -10z"/>
<path d="M6275 3689 c-91 -45 -139 -125 -139 -229 1 -116 66 -203 181 -239
107 -34 244 24 286 121 32 74 37 90 37 119 0 82 -65 187 -140 226 -60 30 -167
31 -225 2z"/>
<path d="M1017 3686 c-59 -22 -99 -59 -136 -128 -30 -57 -29 -160 2 -218 50
-96 116 -135 227 -135 64 0 82 4 123 28 161 94 167 320 11 427 -37 26 -57 32
-117 36 -47 3 -85 0 -110 -10z"/>
<path d="M7255 3613 c-45 -23 -65 -44 -81 -82 -40 -96 17 -207 117 -225 58
-10 99 4 146 50 41 42 43 46 43 104 0 75 -27 121 -87 150 -51 24 -97 25 -138
3z"/>
<path d="M90 3589 c-42 -25 -69 -57 -70 -81 0 -10 -4 -18 -10 -18 -19 0 -10
-69 14 -112 34 -61 77 -88 142 -88 35 0 64 7 88 21 54 32 71 64 71 141 0 61
-3 70 -30 98 -16 18 -42 38 -57 46 -40 21 -107 17 -148 -7z"/>
<path d="M3050 2920 c-8 -5 -23 -10 -34 -10 -44 0 -153 -65 -217 -129 -160
-161 -194 -392 -86 -595 133 -250 470 -337 710 -184 104 67 178 166 218 293
22 68 16 220 -11 295 -58 164 -186 281 -355 325 -63 17 -202 20 -225 5z"/>
<path d="M4188 2909 c-162 -54 -262 -155 -329 -329 -19 -47 -19 -253 0 -300
83 -217 239 -337 451 -348 161 -8 281 37 389 146 74 75 115 154 138 269 16 73
16 86 1 162 -9 45 -30 111 -47 147 -56 120 -188 226 -327 263 -66 18 -210 12
-276 -10z"/>
<path d="M5440 2731 c-109 -25 -181 -94 -215 -207 -20 -66 -19 -109 4 -172 51
-138 162 -211 305 -200 111 9 197 71 247 177 17 37 20 59 17 125 -2 51 -10 95
-22 118 -23 48 -83 108 -135 135 -47 25 -145 37 -201 24z"/>
<path d="M1866 2706 c-63 -30 -118 -85 -146 -144 -33 -70 -32 -189 3 -257 89
-175 312 -218 456 -89 66 60 91 108 98 194 12 145 -62 260 -197 307 -58 21
-158 15 -214 -11z"/>
<path d="M6494 2032 c-55 -23 -76 -40 -108 -86 -35 -52 -37 -152 -5 -206 45
-72 101 -104 184 -104 70 1 109 18 153 68 97 111 48 283 -94 332 -51 18 -80
17 -130 -4z"/>
<path d="M824 1998 c-67 -46 -88 -87 -89 -173 0 -63 3 -75 32 -116 84 -120
257 -118 341 5 27 41 32 57 32 108 0 125 -83 208 -208 208 -51 0 -67 -5 -108
-32z"/>
<path d="M3657 1710 c-74 -19 -125 -54 -176 -122 -20 -27 -51 -120 -51 -156 0
-111 62 -214 165 -273 34 -20 54 -23 130 -23 104 1 142 14 203 71 127 118 131
304 10 425 -70 70 -185 102 -281 78z"/>
<path d="M4995 1412 c-70 -24 -110 -56 -142 -110 -24 -40 -28 -58 -28 -122 0
-92 17 -132 84 -192 158 -142 395 -39 409 177 7 101 -43 187 -131 229 -72 35
-131 40 -192 18z"/>
<path d="M2348 1406 c-53 -19 -83 -40 -114 -81 -81 -106 -68 -257 30 -343 51
-44 98 -62 167 -62 266 0 347 355 109 475 -46 23 -145 29 -192 11z"/>
<path d="M1886 496 c-47 -28 -86 -89 -86 -134 0 -60 38 -125 90 -152 31 -17
119 -17 150 0 65 34 101 115 81 182 -19 60 -37 84 -85 108 -55 26 -102 25
-150 -4z"/>
<path d="M5455 501 c-50 -30 -69 -68 -70 -137 0 -51 4 -66 28 -97 96 -126 287
-60 287 99 0 58 -26 106 -72 134 -44 26 -131 27 -173 1z"/>
<path d="M3643 395 c-76 -34 -113 -95 -113 -184 0 -51 5 -73 25 -107 26 -45
72 -84 99 -84 9 0 16 -4 16 -10 0 -6 27 -10 60 -10 33 0 60 4 60 10 0 6 8 10
18 10 24 0 89 55 109 93 22 43 22 143 0 190 -32 66 -118 118 -193 116 -16 0
-53 -11 -81 -24z"/>
</g>
</svg>
