<?xml version="1.0" encoding="UTF-8" standalone="no"?>
<!DOCTYPE svg PUBLIC "-//W3C//DTD SVG 1.1//EN" "http://www.w3.org/Graphics/SVG/1.1/DTD/svg11.dtd">
<svg width="100%" height="100%" viewBox="0 0 750 692" version="1.1" xmlns="http://www.w3.org/2000/svg" xmlns:xlink="http://www.w3.org/1999/xlink" xml:space="preserve" xmlns:serif="http://www.serif.com/" style="fill-rule:evenodd;clip-rule:evenodd;stroke-linejoin:round;stroke-miterlimit:2;">
    <g transform="matrix(0.1,0,0,-0.1,0,692)">
        <path d="M3705,6910C3702,6905 3688,6900 3676,6900C3645,6900 3563,6827 3545,6783C3489,6650 3590,6500 3735,6500C3804,6500 3850,6520 3893,6571C3940,6626 3957,6694 3939,6758C3923,6816 3844,6900 3806,6900C3792,6900 3778,6905 3775,6910C3772,6916 3756,6920 3740,6920C3724,6920 3708,6916 3705,6910Z" style="fill:white;"/>
        <path d="M5460,6707C5397,6677 5368,6630 5368,6558C5369,6462 5432,6400 5530,6400C5580,6400 5591,6404 5628,6436C5744,6535 5677,6722 5526,6719C5503,6719 5474,6713 5460,6707Z" style="fill:white;"/>
        <path d="M1878.8,6667.12L1896.54,6704.47L1893,6704C1853,6695 1802,6633 1795,6585C1793.67,6576.18 1792.85,6567.54 1792.67,6559.11L1805.07,6566.33C1818.49,6578.6 1816.67,6577.09 1828.31,6590.37L1854.47,6626.53L1878.8,6667.12Z" style="fill:white;"/>
        <path d="M5106.2,5991.01L5133.65,5962.9L5141.93,5955.18C5149.76,5946.82 5150.41,5938.77 5150.41,5912.62C5150.41,5877.47 5150.95,5875.31 5172.58,5854.22C5184.48,5842.33 5197.99,5824.48 5202.86,5815.83C5207.19,5806.64 5216.38,5793.12 5223.41,5785.55C5239.63,5767.71 5280.18,5689.31 5280.18,5676.33C5280.18,5665.5 5284.25,5656.25 5291.36,5650.37C5320.03,5725.43 5314.7,5814.51 5269,5884C5236,5933 5199,5960 5130,5984L5106.2,5991.01Z" style="fill:white;"/>
        <path d="M6465,5271C6385,5235 6343,5157 6353,5063C6360,4997 6387,4951 6442,4914C6478,4891 6496,4886 6551,4886C6676,4884 6760,4964 6760,5084C6760,5154 6740,5200 6690,5243C6630,5294 6540,5306 6465,5271Z" style="fill:white;"/>
        <path d="M1019.84,4922.72C1023.06,4946.2 1027.27,4963.34 1033.22,4978.09L1043.21,4998.28C1049.97,5009.91 1053.62,5017.07 1055.11,5025.32C1056.59,5033.57 1055.92,5042.89 1054.03,5058.84C1052,5078.31 1052.1,5090.78 1054.56,5099.9C1055.38,5102.94 1056.46,5105.61 1057.81,5108.05C1061.35,5114.84 1062.96,5118.57 1062.41,5120.87C1062.37,5122.85 1060.76,5123.83 1057.81,5124.81C1044.83,5129.14 1015.09,5159.96 1011.31,5172.93C1009.15,5181.58 1012.39,5189.15 1025.37,5202.13C1039.97,5216.73 1041.59,5222.14 1038.88,5238.9L1037.95,5248.04C1005.56,5268.09 966.917,5279.62 925,5279C898,5279 861,5272 844,5265C777,5235 720,5148 720,5075C720,5001 779,4914 849,4884C892,4866 968,4866 1013,4885L1015.79,4886.44L1019.84,4922.72Z" style="fill:white;"/>
        <path d="M2217.53,3813.33L2201.16,3805.58C2140.5,3743.82 2095.87,3667.9 2074,3585C2053,3507 2056,3371 2081,3298C2130,3151 2258,3020 2390,2981C2415,2974 2448,2964 2464,2959C2508,2946 2618,2948 2679,2965C2841,3008 2987,3139 3032,3285C3077,3429 3070,3548 3007,3680C2989.06,3715.88 2980.86,3730.46 2953.87,3763.56L2948.12,3760.61C2929.19,3750.34 2909.73,3741.68 2904.86,3741.68C2897.29,3741.68 2875.12,3754.12 2844.3,3775.75L2839.18,3780.89L2838.4,3782.53C2834.72,3788.39 2833.32,3797.25 2832.95,3812.52C2832.41,3828.74 2831.87,3844.42 2831.33,3848.2C2830.97,3852.06 2827.84,3857.62 2822.78,3863.51L2813.95,3873.95L2804.07,3882.69C2796.85,3889.32 2788.83,3894.96 2781.58,3898.49C2774.86,3902.13 2769.44,3906.06 2765.93,3910.32L2764.16,3912.04L2727,3928C2712.99,3933.37 2700.4,3937.49 2687.1,3940.24C2642.37,3941.29 2581.83,3940.27 2541.79,3937.67C2526.12,3936.79 2513.58,3935.58 2506.36,3934.18C2476.62,3928.77 2471.22,3926.07 2468.51,3914.71L2465.59,3907.17C2461.18,3901.19 2450.53,3899.16 2417.68,3894.7L2394.77,3891.31C2375.11,3887.71 2364.56,3883.35 2357.67,3876.86C2351.18,3870.91 2336.04,3862.8 2324.68,3859.56C2313.33,3856.86 2293.32,3847.12 2280.89,3838.47L2257.84,3825.97L2234.39,3817.92C2229.21,3817.1 2223.33,3815.48 2217.53,3813.33Z" style="fill:white;"/>
        <path d="M6169.14,3501.2L6136.93,3475.77L6136,3460C6137,3344 6202,3257 6317,3221C6424,3187 6561,3245 6603,3342C6635,3416 6640,3432 6640,3461C6640,3543 6575,3648 6500,3687C6468.04,3702.98 6422.76,3710.73 6378.64,3709.84C6372.62,3702.83 6365.4,3695.41 6356.54,3687L6338.34,3669.77C6298.33,3633 6281.57,3613.54 6272.38,3592.99C6259.4,3563.25 6239.39,3543.79 6196.68,3519.45L6169.14,3501.2Z" style="fill:white;"/>
        <path d="M1017,3686C958,3664 918,3627 881,3558C851,3501 852,3398 883,3340C933,3244 999,3205 1110,3205C1174,3205 1192,3209 1233,3233C1394,3327 1400,3553 1244,3660C1207,3686 1187,3692 1127,3696C1080,3699 1042,3696 1017,3686Z" style="fill:white;"/>
        <path d="M7255,3613C7210,3590 7190,3569 7174,3531C7134,3435 7191,3324 7291,3306C7349,3296 7390,3310 7437,3356C7478,3398 7480,3402 7480,3460C7480,3535 7453,3581 7393,3610C7342,3634 7296,3635 7255,3613Z" style="fill:white;"/>
        <path d="M90,3589C48,3564 21,3532 20,3508C20,3498 16,3490 10,3490C-9,3490 0,3421 24,3378C58,3317 101,3290 166,3290C201,3290 230,3297 254,3311C308,3343 325,3375 325,3452C325,3513 322,3522 295,3550C279,3568 253,3588 238,3596C198,3617 131,3613 90,3589Z" style="fill:white;"/>
        <path d="M3395.57,2045.26L3399.61,2053.06C3401.83,2055.84 3404.34,2061.62 3406.34,2068.73L3410.42,2090.91C3412.04,2109.29 3418.13,2128.62 3426.64,2145.05L3440.99,2167.02L3445.78,2172.04C3449.47,2176.11 3453.44,2179.35 3457.46,2181.75C3510.45,2213.11 3521.27,2241.77 3501.26,2298L3486.26,2337.27L3467.2,2381.81C3456.36,2405.33 3449.75,2423.93 3447.33,2439.88L3446.11,2447.84L3446.07,2452.78C3445.41,2468.23 3449.39,2481.36 3457.46,2494.82C3473.68,2520.77 3472.06,2533.21 3444.49,2589.44C3430.97,2617.02 3420.15,2645.13 3420.15,2651.62C3420.15,2658.65 3410.42,2678.66 3398.53,2695.96C3373.11,2733.27 3372.03,2743.54 3390.41,2755.44C3397.99,2760.3 3403.93,2766.25 3403.93,2768.41C3403.93,2769.86 3401.26,2772.28 3397.1,2774.48L3390.41,2778.15L3384.73,2781.57C3378.88,2785.78 3376.9,2791.48 3376.9,2802.48C3376.9,2806.8 3375.55,2812.58 3373.18,2819.2L3363.38,2840.94C3355.27,2856.28 3344.45,2872.5 3333.64,2884.67L3332.63,2886.06C3329.63,2889.51 3326.86,2894.29 3325.07,2899.17C3308.89,2905.32 3292.15,2910.53 3275,2915C3212,2932 3073,2935 3050,2920C3042,2915 3027,2910 3016,2910C2972,2910 2863,2845 2799,2781C2639,2620 2605,2389 2713,2186C2838.88,1949.38 3147.53,1858.78 3383.53,1979.81L3384.47,1987.09C3387.71,2013.86 3391.56,2034.24 3395.57,2045.26Z" style="fill:white;"/>
        <path d="M5664.16,2693.03C5682.36,2668.49 5685.54,2643.04 5671.65,2623.51C5655.97,2600.8 5652.73,2578.63 5659.22,2535.91C5662.46,2513.74 5669.49,2485.08 5675.44,2472.11C5680.85,2459.67 5685.71,2440.21 5685.71,2428.85C5685.71,2381.27 5709.5,2345.04 5762.49,2310.98L5768.56,2306.05L5781,2329C5798,2366 5801,2388 5798,2454C5796,2505 5788,2549 5776,2572C5756.37,2612.96 5709.8,2662.67 5664.16,2693.03Z" style="fill:white;"/>
        <path d="M1866,2706C1803,2676 1748,2621 1720,2562C1687,2492 1688,2373 1723,2305C1812,2130 2035,2087 2179,2216C2245,2276 2270,2324 2277,2410C2289,2555 2215,2670 2080,2717C2022,2738 1922,2732 1866,2706Z" style="fill:white;"/>
        <path d="M6563.82,2048.64L6545.65,2047.42C6546.55,2036.99 6546.37,2023.02 6545.98,2002.23C6545.43,1949.25 6546.52,1938.43 6556.79,1918.42C6567.6,1897.34 6568.14,1892.47 6562.2,1864.89C6558.95,1848.13 6557.87,1827.05 6559.49,1817.85C6562.2,1804.67 6558.77,1797.2 6551.21,1796.48C6546.67,1796.05 6540.64,1798.05 6533.54,1802.71L6523.03,1808.06C6514.82,1810.01 6512.99,1801.09 6512.99,1775.14C6512.99,1750.81 6509.75,1741.61 6494.07,1718.9C6484.07,1704.47 6476.36,1689.58 6470.9,1673.71L6466.18,1657.49C6494.31,1642.78 6526.8,1636 6565,1636C6635,1637 6674,1654 6718,1704C6815,1815 6766,1987 6624,2036C6600.72,2044.22 6582.02,2048.47 6563.82,2048.64Z" style="fill:white;"/>
        <path d="M3430.63,1439.36C3441.78,1418.72 3451.83,1390.33 3455.3,1367.99C3461.79,1321.49 3475.31,1292.29 3512.07,1240.38C3523.96,1223.8 3532.86,1210.75 3539,1199.63C3469.79,1259.29 3430,1343.08 3430,1432L3430.63,1439.36Z" style="fill:white;"/>
        <path d="M5221.41,1373.7C5223.01,1366.11 5227.25,1358.93 5234.22,1352.85C5243.41,1344.74 5247.74,1335.54 5247.74,1323.65C5247.74,1313.91 5253.15,1294.99 5259.1,1281.47C5266.66,1265.25 5268.83,1251.73 5266.66,1239.84C5264.5,1227.94 5267.2,1215.51 5274.78,1200.91C5287.75,1174.41 5288.29,1160.36 5276.4,1129.54C5270.99,1114.39 5267.75,1087.36 5267.2,1054.92L5266.85,1021.88C5295.62,1060.24 5314.36,1108.8 5318,1165C5324.02,1251.91 5287.84,1327.71 5221.41,1373.7Z" style="fill:white;"/>
        <path d="M2348,1406C2295,1387 2265,1366 2234,1325C2153,1219 2166,1068 2264,982C2315,938 2362,920 2431,920C2697,920 2778,1275 2540,1395C2494,1418 2395,1424 2348,1406Z" style="fill:white;"/>
        <path d="M1886,496C1839,468 1800,407 1800,362C1800,302 1838,237 1890,210C1921,193 2009,193 2040,210C2105,244 2141,325 2121,392C2102,452 2084,476 2036,500C1981,526 1934,525 1886,496Z" style="fill:white;"/>
        <path d="M5455,501C5405,471 5386,433 5385,364C5385,313 5389,298 5413,267C5509,141 5700,207 5700,366C5700,424 5674,472 5628,500C5584,526 5497,527 5455,501Z" style="fill:white;"/>
        <path d="M3737.25,418.209L3724,419C3708,419 3671,408 3643,395C3567,361 3530,300 3530,211C3530,160 3535,138 3555,104C3581,59 3627,20 3654,20C3663,20 3670,16 3670,10C3670,4 3697,0 3730,0C3763,0 3790,4 3790,10C3790,16 3798,20 3808,20C3819.73,20 3841.25,33.136 3862.48,51.05L3847.31,56.233C3835.96,57.856 3821.36,63.803 3814.87,69.21C3804.06,77.862 3803.51,79.484 3811.62,85.972C3818.11,91.379 3820.82,96.786 3819.33,103.68L3819.18,104C3817.66,110.847 3812,119.139 3801.89,130.31C3794.33,138.541 3788.23,147.961 3784.39,157.85L3781.48,163.969L3777.89,179.621C3776.78,186.15 3776.89,192.528 3778.1,198.439C3779.18,204.928 3785.67,208.712 3798.65,209.794C3822.44,211.957 3825.68,217.364 3825.68,254.672C3825.68,266.298 3825.01,274.949 3823.05,282.451C3821.09,289.954 3817.84,296.307 3812.71,303.336C3805.86,312.626 3795.48,330.318 3788.55,345.307L3786.21,349.837L3773.1,371.33L3766.44,379.339L3760.8,383.901L3756.83,386.856C3751.07,391.034 3745.95,398.277 3741.75,407.203L3737.25,418.209Z" style="fill:white;"/>
    </g>
    <g id="Ebene1" transform="matrix(0.540706,0,0,0.540706,35.9759,-0.103519)">
        <g transform="matrix(1.84943,0,0,1.84943,-66.535,0.191451)">
            <path d="M528.979,127.319C527.712,130.548 525.795,133.499 523.297,135.907L520.5,138.2C518.119,139.831 515.537,140.984 512.874,141.691L510.189,142.25L507.476,142.518L506.904,142.515L506.667,142.517C500.306,142.769 493.955,140.685 489.143,136.676C486.458,134.462 484.256,131.643 482.792,128.3L481.738,125.543C481.494,124.615 481.25,123.688 481.006,122.76L480.729,120.916C480.223,117.322 480.519,113.75 481.492,110.417C481.926,108.839 482.529,107.32 483.27,105.875C486.311,99.814 491.782,95.061 498.892,93.2C501.464,92.568 503.426,92.222 505.271,92.234C506.833,92.158 508.276,92.32 509.884,92.741C504.263,86.266 499.415,76.316 501.402,74.189C501.673,73.919 500.699,71.107 498.969,67.323C497.347,63.808 496.049,60.726 496.049,60.51C496.049,60.239 496.698,60.131 497.563,60.239C499.726,60.564 498.591,60.131 492.156,58.293C486.154,56.562 485.235,56.617 483.667,58.509C483.289,58.942 482.261,59.482 481.342,59.644C480.261,59.915 479.341,60.672 478.638,61.861C478.044,62.889 477.124,63.97 476.584,64.24C475.124,64.997 472.312,64.889 469.176,63.97C467.662,63.538 465.121,62.889 463.553,62.618C461.931,62.294 459.93,61.537 459.119,60.942C458.254,60.293 455.442,59.374 452.631,58.833C449.873,58.293 447.223,57.644 446.737,57.482C446.142,57.265 445.601,57.482 445.115,58.239C444.033,59.969 443.222,59.644 441.384,56.671C440.519,55.211 439.329,53.913 438.843,53.751C438.356,53.643 435.112,53.372 431.705,53.156C423.703,52.723 423.595,52.669 423.595,50.507C423.595,48.398 422.243,46.938 419.756,46.451C418.566,46.235 417.701,45.586 417.106,44.505C415.754,42.017 413.429,42.017 410.672,44.505C409.212,45.802 407.373,46.776 404.94,47.479C400.669,48.722 400.074,49.155 399.263,51.534C398.776,52.994 398.884,53.859 399.804,56.454C400.398,58.185 400.885,60.185 400.885,60.888C400.885,63.213 399.209,65.863 396.83,67.214C393.694,69.053 391.801,68.945 388.665,66.674C383.204,62.727 382.934,62.618 379.419,62.618C376.229,62.618 373.742,61.915 366.983,59.104C364.928,58.185 362.873,55.535 361.954,52.615C360.548,48.182 359.629,47.533 353.411,47.1C349.518,46.776 349.139,46.668 347.463,44.883C345.895,43.261 345.03,42.883 341.786,42.288C339.623,41.909 336.811,41.585 335.46,41.531C331.35,41.477 329.025,40.612 327.782,38.503C326.646,36.61 325.997,36.34 324.7,37.151C324.159,37.53 323.402,37.259 322.32,36.34C321.455,35.637 320.59,35.042 320.32,35.042C320.104,35.042 319.617,34.339 319.238,33.474C318.319,31.203 319.455,29.041 321.942,28.229C323.131,27.851 323.997,27.094 324.375,26.175C324.7,25.418 325.511,24.282 326.159,23.688C328.16,21.849 327.782,19.2 325.186,16.658C323.294,14.82 323.023,14.225 323.023,12.171C323.023,10.278 323.402,9.305 324.97,7.304C326.808,4.925 327.025,3.681 325.511,3.681C325.132,3.681 324.267,4.276 323.564,5.033L322.266,6.385L319.563,3.735C314.588,-1.023 313.615,-1.131 309.019,2.816C307.127,4.438 305.072,5.844 304.423,5.952C303.828,6.061 301.287,5.466 298.908,4.601C295.339,3.411 294.204,3.249 293.014,3.681C292.095,4.06 291.23,4.06 290.581,3.681C288.959,2.816 288.094,3.033 287.445,4.492C286.958,5.466 286.418,5.844 285.228,5.844C284.201,5.844 283.336,6.277 282.795,7.034L281.984,8.223L279.388,6.818C277.063,5.574 275.982,5.412 269.115,5.141L261.437,4.871L259.653,6.601C257.868,8.331 257.706,8.386 251.92,8.656C244.837,8.98 242.134,9.954 241.593,12.171C240.944,14.82 240.349,15.144 237.213,14.766C232.834,14.225 229.049,15.523 225.588,18.821C223.209,21.092 222.398,21.525 220.668,21.525C219.532,21.525 217.748,21.146 216.612,20.66C214.233,19.686 207.799,20.065 204.392,21.417C202.5,22.174 202.176,22.174 200.553,21.308C199.58,20.768 197.634,19.037 196.228,17.415C194.876,15.793 193.308,14.496 192.767,14.496C191.416,14.496 190.118,16.604 189.685,19.47C189.601,20.033 189.384,20.747 189.046,21.554L190.735,21.37C193.898,21.182 198.255,21.633 201.153,22.425C201.534,22.529 201.89,22.639 202.215,22.754L202.295,22.783C202.637,22.908 202.942,23.038 203.204,23.173L203.592,23.4C203.78,23.524 203.967,23.657 204.151,23.8L204.424,24.02C204.732,24.277 205.029,24.561 205.314,24.87L206.258,25.897L206.918,26.83C207.844,28.133 208.623,29.641 209.204,31.227C209.414,31.797 209.597,32.378 209.752,32.963L209.836,33.272C210.007,33.924 210.141,34.58 210.234,35.233L210.255,35.384C210.297,35.704 210.33,36.023 210.353,36.34L210.386,36.992L210.392,37.4L210.383,37.939L210.368,38.308C210.331,39.015 210.25,39.707 210.127,40.381C209.767,42.364 209.048,44.193 208.025,45.802C206.799,47.781 205.119,49.432 203.102,50.65C202.853,50.8 202.6,50.944 202.342,51.08C200.649,51.986 198.743,52.597 196.681,52.84C196.263,52.903 195.839,52.946 195.408,52.971L195.12,52.985L194.392,53C194.084,53 193.779,52.993 193.478,52.98C192.612,52.941 191.775,52.847 190.971,52.701C190.936,52.694 190.901,52.688 190.866,52.681C187.271,52.004 184.319,50.277 182.216,47.76C179.754,44.813 178.458,40.782 178.659,36.089C175.899,37.698 170.667,39.759 167.354,40.449C164.38,41.098 160.92,42.504 159.622,43.586C158.432,44.559 158.378,46.451 159.406,48.452C160.055,49.75 160.055,50.507 159.46,53.318C159.081,55.211 158.378,57.157 157.892,57.698C156.702,58.996 156.81,62.51 158.108,64.511C159.676,66.89 159.568,70.621 157.838,72.946C157.135,73.973 155.837,75.758 155.026,77.001C152.647,80.462 146.158,86.247 142.914,87.761C141.292,88.464 139.075,89.113 137.94,89.113C134.371,89.113 132.262,90.357 131.019,93.276C127.774,100.846 126.477,102.739 122.043,105.875C118.691,108.254 117.447,111.066 117.068,117.23L116.744,122.312L114.96,122.853C113.932,123.123 112.689,124.097 112.04,125.016C111.391,125.935 110.201,127.395 109.39,128.314C108.579,129.179 107.174,131.937 106.254,134.37C103.821,141.075 102.578,143.238 99.712,145.887C97.549,147.888 97.062,148.753 96.738,150.862C96.197,154.538 97.603,158.431 100.577,161.351C102.037,162.757 102.956,164.109 102.956,164.92L103.187,167.196L105.739,169.051C109.731,172.444 112.369,177.279 112.869,182.579L112.906,185.807L112.392,189.1C112.175,189.982 111.863,190.888 111.448,191.785C109.382,196.645 105.04,201.572 100.971,203.356L100.847,204.554L100.523,208.879L97.927,210.555C93.926,213.151 92.683,214.557 92.683,216.287C92.683,218.342 93.494,219.856 95.711,221.91C97.441,223.532 97.549,223.803 97.549,227.426C97.549,229.534 97.279,232.508 96.954,233.968C95.927,238.888 98.306,242.673 102.848,243.376C106.254,243.971 107.66,245.377 108.093,248.892C108.417,251.649 108.579,251.974 110.256,252.622C111.715,253.271 112.418,254.19 113.986,257.381C115.014,259.543 115.933,261.814 116.041,262.409C116.149,263.166 116.69,263.545 117.771,263.653C118.745,263.761 120.313,264.896 122.259,266.789C125.179,269.709 125.179,269.763 124.584,271.655C123.503,274.845 124.26,276.846 127.883,280.361C129.667,282.091 131.668,284.416 132.316,285.551C133.073,286.903 133.993,287.714 135.074,287.985C136.318,288.309 136.912,288.904 137.345,290.147C138.21,292.797 142.698,297.014 147.618,299.772C152.809,302.692 155.621,305.395 156.594,308.369C157.243,310.316 157.513,310.532 159.298,310.694C160.757,310.802 161.514,311.235 161.947,312.046C162.758,313.614 163.461,314.047 165.137,314.047C165.894,314.047 167.3,314.533 168.273,315.128C169.247,315.723 170.382,316.209 170.869,316.209C171.734,316.209 177.303,313.506 180.223,311.613C181.412,310.856 183.467,310.262 185.414,310.045C187.468,309.829 189.253,309.288 190.28,308.531C192.281,307.017 195.633,306.747 203.041,307.45C209.259,308.045 213.044,309.342 215.531,311.722L216.991,313.073L218.667,311.884L219.507,311.442C224.233,306.604 229.937,302.631 236.3,299.88C237.789,299.204 239.324,298.616 240.892,298.1C242.167,297.725 246.029,297.35 250.497,297.186L255.092,297.1L262.856,297.223C264.914,297.354 266.552,297.591 268.102,297.976C270.659,298.008 272.699,298.123 273.549,298.312C274.684,298.528 275.225,299.015 275.333,299.88C275.377,300.185 275.534,300.498 275.808,300.796L280.498,303.284C284.024,305.36 287.378,307.794 289.873,310.134C290.681,310.862 291.391,311.593 291.992,312.3L294.779,315.644C297.565,314.142 298.189,314.047 302.963,314.047L308.316,314.047L311.614,317.615C316.427,322.914 317.833,326.05 318.049,332.431C318.211,336.702 318.049,338.541 316.913,342.758C316.156,345.57 315.399,349.301 315.183,351.085C314.967,352.869 314.21,356.168 313.453,358.384C312.696,360.601 311.993,364.008 311.831,365.954C311.506,370.118 312.642,373.362 316.264,378.661C317.508,380.445 319.184,383.041 319.995,384.446C320.752,385.852 322.645,388.394 324.159,390.124C325.619,391.8 326.97,393.747 327.079,394.45C327.241,395.152 327.457,396.234 327.619,396.937C327.782,397.694 328.539,398.505 329.62,398.991C330.809,399.478 331.458,400.181 331.566,401.1L331.899,402.083L334.561,403.132C345.035,407.591 353.436,415.19 358.878,425.124C360.158,427.474 361.278,429.953 362.22,432.552L362.392,433C363.296,435.51 363.964,438.883 364.344,442.518L364.481,443.632C365.154,450.569 364.881,458.208 363.492,462.5C362.887,464.422 362.204,466.279 361.415,468.057C359.325,473.062 356.607,477.542 353.305,481.465C350.027,485.495 346.133,488.939 341.692,491.8L337.744,494.019C337.26,498.184 336.899,499.405 335.568,501.401C334.648,502.807 333.783,504.97 333.621,506.213C331.891,521.137 331.566,528.923 332.378,532.167C332.648,533.032 334,534.871 335.405,536.223C337.244,538.007 338.271,539.575 338.974,541.684C339.461,543.306 340.434,545.252 341.137,546.009C341.572,546.507 342.03,547.218 342.455,548.064L343.114,544.409C343.562,542.622 344.185,540.647 344.874,538.832L345.959,536.028L346.403,535.114C346.775,534.319 347.149,533.662 347.492,533.2L347.671,532.976C350.367,529.407 353.077,526.766 356.149,524.815L357.616,523.902C358.39,523.519 359.163,523.135 359.937,522.752L361.498,522.148C362.63,521.696 363.827,521.325 365.092,521C367.492,520.4 370.011,520.15 372.548,520.222L376.356,520.568C379.888,521.117 383.358,522.267 386.49,523.948C388.988,525.228 391.261,526.869 393.192,528.8C399.062,534.67 401.99,542.069 401.973,549.48C401.978,551.202 401.817,552.925 401.497,554.63C401.18,556.408 400.678,558.163 400.004,559.875C398.611,563.494 396.437,566.92 393.505,569.956L392.192,571.3C387.699,575.498 384.454,577.309 378.9,578C377.857,578.145 376.731,578.238 375.5,578.3L371.892,578.4C364.292,578.4 362.292,578.1 358.892,576.1C357.868,575.513 356.884,574.883 355.948,574.207C355.012,573.53 354.124,572.808 353.292,572.037C354.908,574.701 355.015,576.099 354.438,578.29C353.519,581.588 353.735,584.94 355.249,589.861C356.385,593.7 356.601,595.051 356.331,598.458C356.06,601.756 356.223,603.162 357.088,605.595C357.683,607.325 358.169,609.488 358.169,610.407C358.169,613.49 359.954,621.979 360.981,623.871C364.009,629.386 365.631,631.711 367.091,632.522C369.362,633.766 372.39,641.228 372.282,645.391C372.269,646.197 372.341,647.03 372.484,647.844L373.117,650.179L375.823,650.516C380.198,651.387 384.556,653.801 387.688,657.016C389.113,658.431 390.277,660.02 391.092,661.7C391.66,662.913 392.081,664.478 392.349,666.208L392.639,668.643L392.709,670.489C392.762,672.232 392.67,673.987 392.448,675.603C392.211,677.618 391.75,679.414 391.092,680.7L390.219,682.074C389.07,683.699 387.364,685.453 385.64,686.895C386.587,687.323 387.543,688.085 388.773,689.351C390.233,690.81 391.801,692 392.234,692C392.72,692 394.18,691.297 395.532,690.432C397.803,688.918 402.399,687.674 406.887,687.404C407.968,687.296 409.644,686.701 410.564,685.998C411.699,685.133 412.835,684.809 414.132,684.917C417.701,685.187 420.621,685.079 423.27,684.7C424.892,684.43 427.271,684.538 429.488,684.971C433.111,685.62 433.165,685.62 437.166,683.835C440.086,682.484 441.87,682.051 443.871,682.105C446.088,682.159 446.845,681.889 448.305,680.591C449.711,679.402 450.576,679.077 452.198,679.131C453.928,679.185 454.793,678.807 456.902,677.077C461.931,672.913 469.609,665.235 470.906,663.018C471.988,661.18 472.637,660.693 474.637,660.152C476.368,659.72 477.449,659.017 478.368,657.773C483.775,650.366 487.722,644.418 490.372,639.66C492.859,635.28 493.778,634.09 494.914,633.82C497.509,633.279 497.671,633.117 497.671,631.387C497.671,630.414 498.482,628.143 499.51,626.358C501.51,622.682 502.97,616.896 503.619,609.975C503.998,605.541 504.106,605.325 506.323,603.054C507.045,602.318 507.877,601.611 508.787,600.952L511.716,599.145C504.648,600.741 496.8,599.049 490.292,593.2L489.865,592.795C486.947,590.151 485.033,587.867 483.837,585.29C482.921,583.416 482.405,581.38 482.151,578.934C481.959,577.461 481.892,575.834 481.892,574C481.892,567.6 482.292,565.8 484.692,561.8L485.934,559.875L486.881,558.651C487.626,557.701 488.443,556.847 489.337,556.067C491.79,553.849 494.838,552.19 498.892,550.8L501.173,550.102C502.691,549.722 504.209,549.513 505.749,549.48L508.079,549.563C511.217,549.85 514.492,550.85 518.092,552.6C518.706,552.893 519.301,553.207 519.875,553.545L521.533,554.63C520.915,552.173 522.893,549.334 526.329,548.713C530.763,547.902 531.628,547.307 532.331,544.928C532.871,543.198 534.007,541.738 537.305,538.818C539.63,536.709 542.766,533.465 544.226,531.573C547.2,527.734 550.769,525.409 555.202,524.435C557.582,523.895 558.933,523.083 562.448,520.001C566.936,516.108 567.368,515.46 567.693,512.161C567.801,510.647 568.612,509.458 571.37,506.646C576.074,501.726 576.831,500.158 576.344,496.319C576.128,494.642 576.02,490.749 576.074,487.613C576.398,469.229 576.452,468.418 577.371,466.58C578.217,464.962 578.263,463.644 577.407,462.494L576.248,461.395C572.522,468.166 567.144,472.857 560.471,475.175C559.212,475.643 557.897,476.004 556.538,476.277L552.792,476.8L550.149,476.908C546.886,476.921 543.811,476.475 540.963,475.585C537.737,474.615 534.799,473.076 532.197,471.021L530.413,469.483C529.78,468.877 529.166,468.241 528.577,467.571C525.969,464.628 523.85,461.017 522.292,456.8C521.503,454.639 520.973,452.713 520.716,450.848C520.17,447.28 520.578,443.936 521.892,439.6C525.292,428.3 532.492,421.4 543.392,418.9C544.792,418.575 546.454,418.406 548.234,418.375C553.264,418.289 559.227,419.305 562.839,421.012L563.492,421.3C564.254,421.696 565.034,422.163 565.808,422.697C565.383,422.078 564.851,421.477 564.232,420.89C562.286,418.998 562.123,417.538 563.637,414.618C564.935,412.022 566.287,411.266 569.531,411.157C572.018,411.103 572.018,411.103 572.181,409.103C572.397,406.453 571.586,405.047 569.585,404.615C567.693,404.182 567.585,403.642 568.99,401.803C569.585,401.1 570.234,399.37 570.396,397.964C571.099,392.233 571.261,391.854 573.695,389.421C574.992,388.069 576.074,386.663 576.074,386.231C576.074,385.852 577.642,383.852 579.588,381.851C581.535,379.85 583.103,377.796 583.103,377.309C583.103,376.282 587.915,370.658 591.97,367.036C593.43,365.684 595.593,363.143 596.783,361.358C599.108,357.885 603.74,352.89 608.443,348.514L613.085,344.423C613.495,334.79 618.258,327.37 626.892,323.1C628.247,322.422 629.87,321.908 631.639,321.56C633.407,321.212 635.32,321.03 637.256,321.016C639.367,318.638 640.108,316.789 641.175,312.965C641.715,311.019 642.905,308.856 644.635,306.747C648.042,302.53 648.636,301.394 649.123,298.042C649.339,296.474 649.88,294.419 650.367,293.446C650.799,292.418 651.556,290.526 652.043,289.282C653.016,286.362 657.72,277.927 660.316,274.413C662.857,270.898 663.614,268.573 663.668,264.031C663.668,261.814 664.047,259.706 664.479,258.895C664.912,258.138 665.236,256.57 665.236,255.38C665.236,254.19 664.912,252.622 664.479,251.865C664.047,251.108 663.722,249.757 663.668,248.837C663.668,247.161 662.262,245.377 661.019,245.377C660.64,245.377 659.451,245.972 658.369,246.729C654.909,249.108 648.042,251.487 645.717,251.108C644.365,250.892 642.851,251.108 640.958,251.865C639.444,252.46 637.065,252.947 635.605,252.947C633.334,252.947 632.74,253.217 631.009,254.893L628.955,256.894L624.575,256.57C620.682,256.245 619.655,256.353 615.167,257.813C609.327,259.706 605.326,259.922 604.028,258.462C603.542,257.921 602.73,256.245 602.244,254.677C601.054,251.108 599.919,250.027 597.161,250.135C595.593,250.189 594.89,249.973 594.512,249.27C593.755,247.864 594.782,246.458 596.566,246.458C598.567,246.458 599.54,245.269 599.054,243.376C598.891,242.511 598.567,240.943 598.405,239.808C598.189,238.077 597.81,237.591 596.35,236.942C595.323,236.563 594.35,235.644 594.133,234.995C593.917,234.292 593.052,232.724 592.241,231.481C591.376,230.237 590.673,228.994 590.673,228.723C590.673,227.804 588.78,226.56 586.347,225.912C584.995,225.587 583.535,225.209 582.995,225.046C582.508,224.884 581.751,223.857 581.319,222.775C580.507,220.775 576.56,216.99 573.1,214.827C572.235,214.232 570.558,212.989 569.423,212.015C568.342,211.042 567.098,210.231 566.665,210.231C565.368,210.231 563.529,207.419 563.854,205.905C564.286,203.797 561.421,192.063 559.204,186.981C557.419,182.817 557.311,182.655 555.473,182.655C554.121,182.655 553.851,182.385 553.58,181.033C553.31,179.789 552.931,179.411 552.012,179.411C548.227,179.411 545.794,174.058 545.794,165.731C545.794,159.459 545.145,156.539 542.442,150.645C539.63,144.698 537.521,141.778 535.629,141.399C532.006,140.642 529.357,136.046 530.654,132.64C530.979,131.829 531.195,130.531 531.195,129.666C531.195,128.422 530.925,127.99 529.843,127.719C529.585,127.652 529.342,127.557 529.121,127.431L528.979,127.319ZM440.231,399.188L436.507,399.045L432.037,399.135L430.656,399.221L427.583,399.467L426.107,399.634L423.312,400.053L422.107,400.264L418.8,401.1C402.6,406.5 392.6,416.6 385.9,434C384,438.7 384,459.3 385.9,464C394.2,485.7 409.8,497.7 431,498.8C433.013,498.9 434.961,498.917 436.851,498.849L442.352,498.389L447.016,497.505L448.351,497.153L451.62,496.141L453.223,495.566L454.008,495.245L457.091,493.821L461.088,491.454L462.242,490.656L465.082,488.52L466.202,487.608L469.9,484.2C477.3,476.7 481.4,468.8 483.7,457.3C485.3,450 485.3,448.7 483.8,441.1C482.9,436.6 480.8,430 479.1,426.4C473.5,414.4 460.3,403.8 446.4,400.1C444.75,399.65 442.612,399.35 440.231,399.188ZM496.3,296.5L488.1,296.362C485.775,296.375 484.05,296.45 483.5,296.6C469.2,300 459.4,306.5 451.9,317.6C449.2,321.6 447,325.4 447,326C447,326.6 446.6,327.8 446.1,328.8C442.6,335.3 442.1,350.7 445,360.1C446.9,366.1 450.6,373.9 452,375C452.3,375.3 453.6,377 454.9,378.7C457.1,382 467.2,389.6 472,391.7L475.451,393.08L476.48,393.437L479.06,394.253L480.092,394.548L483.594,395.373L487.108,395.926L488.149,396.04L490.747,396.25L491.783,396.304L495.27,396.32L499.11,396.043L503.148,395.418L504.451,395.118L507.114,394.465L508.626,393.992L510.992,393.187L512.545,392.563L514.768,391.582L516.295,390.825L518.432,389.645L519.884,388.777L521.988,387.359L523.307,386.422L525.491,384.649L526.551,383.762L529.6,380.8C537.4,372.5 541.4,364.3 543,353.1C546.1,331.4 534.9,310.3 515.3,300.8C507.6,297.1 506.4,296.8 496.3,296.5ZM314.706,193.387C311.77,193.362 308.85,193.594 306,194.1C292.5,196.4 278.1,206.6 271.5,218.5C266.8,227 265,234 265,244C265,265.4 277.9,283.8 298,291.1C303.2,293 306.5,293.4 315,293.5L319.62,293.408C323.956,293.225 327.35,292.775 329,292.1C344.6,286.1 353.4,278.9 359.6,267C363.3,259.9 364.3,255.8 364.7,245C365.1,236.1 364.3,230.3 361.9,225.8C361.4,224.8 361,223.5 361,223C361,221.2 353.4,210.7 349.3,206.9C341.125,199.1 329.406,194.281 317.645,193.498L314.706,193.387ZM436,193.5L428.675,193.488C427.5,193.531 426.394,193.597 425.425,193.683L423,194C420.5,194.5 415.1,196.6 411,198.6C396.7,205.7 386.9,219.2 384,235.9C380.5,256.5 391.9,278.8 410.5,287.9C419.6,292.4 423.6,293.3 434,293.3L437.239,293.216L440.297,292.971L441.287,292.84L443.275,292.568L444.428,292.351L446.171,292.008L447.369,291.712L448.985,291.29L450.186,290.918L451.715,290.415L452.902,289.969L454.361,289.384L455.523,288.865L456.923,288.196L458.052,287.607L459.4,286.85L460.49,286.193L461.791,285.347L462.838,284.625L464.097,283.685L465.095,282.904L466.319,281.861L467.261,281.029L468.461,279.869L469.335,279L470.534,277.691L471.317,276.819L472.581,275.263L473.206,274.486L475,272C497.3,239.2 475.5,195.2 436,193.5ZM201.213,216.015L197.837,215.863C195.581,215.869 193.334,216.091 191.22,216.53L188.164,217.351L185.4,218.5C179.7,221.3 175.2,225.7 171.9,231.5C169.3,236.3 168.2,247.5 169.9,253.6L170.726,256.051L171.076,256.831L171.826,258.414L172.329,259.295L173.179,260.678L173.792,261.556L174.77,262.836L175.459,263.664L176.589,264.884L177.314,265.623L178.671,266.849L179.334,267.428L181.499,269.069L183.797,270.523L184.574,270.945L186.196,271.79L187.143,272.215L188.678,272.856L189.692,273.222L191.227,273.709L192.257,273.99L193.838,274.334L194.828,274.518L196.552,274.716L197.391,274.795L199.925,274.812L202.555,274.519C203.419,274.368 204.269,274.163 205.1,273.9C215.3,270.7 220.9,266 225,257.3C227.8,251.3 227.8,238.7 225,232.7C222.2,226.8 216.5,221.2 210.5,218.4L207.918,217.394L207.106,217.149L205.025,216.62L204.176,216.441L201.213,216.015ZM546.235,215.34L545.452,215.418L543.567,215.679L542.849,215.81L540.7,216.4C527.6,221.3 520.2,232.5 521.2,246.1C521.8,254.3 524.7,260.5 530.4,265.8C536.8,271.7 541,273.3 550.5,273.3L554.578,273.195L557.458,272.873L558.23,272.724L560.049,272.27L560.757,272.05L563.1,271.1C576.7,264.6 583.4,248 578.1,233.8C575.6,227.3 570,221.1 563.8,217.9C559.822,215.837 552.207,214.86 546.235,215.34ZM364.734,170.92C367.499,171.888 370.346,172.398 373.183,172.488L376.013,172.437L379.456,171.977L380.427,171.769L383.016,171.068L383.859,170.802L387.047,169.477L387.609,169.174L390.106,167.733L390.964,167.16L393.268,165.395L393.771,164.984L396.258,162.491L396.837,161.792L398.519,159.575L399.1,158.712L400.9,155.5C404,148.8 404,137.1 400.8,130.3C398.3,124.9 392.9,119.2 388.5,117.1C386.8,116.4 384.7,115.4 383.8,114.9L382.614,114.584L382.106,114.503L381.011,114.369L377.416,114.113L374.3,114.1C368.3,114.1 365.3,114.7 361.5,116.4C351.3,121.2 345,131.2 344.9,142.6C344.8,155.5 350.3,164.3 362,169.8L364.734,170.92ZM242.292,143L245.99,142.713L249.354,141.911L250.41,141.496L252.479,140.649L253.636,139.993L255.343,138.972L256.46,138.12L257.926,136.929L258.95,135.912L260.206,134.564L261.109,133.408L262.163,131.924L262.926,130.654L263.776,129.055L264.385,127.695L265.024,126.001L265.467,124.576L265.886,122.808L266.153,121.342L266.339,119.518L266.422,118.039L266.36,116.175L266.254,114.713L265.921,112.817L265.628,111.41L264.985,109.468L264.523,108.176L263.469,106.103L262.918,105.057L260.792,102.1C256.692,97.1 250.492,94.1 243.792,93.6C240.592,93.3 236.992,93.3 235.892,93.6C215.892,98.6 209.792,123.9 225.392,137.2C230.092,141.3 235.092,143 242.292,143Z" style="fill:white;"/>
        </g>
        <g transform="matrix(0.1,0,0,-0.1,0,1280)">
            <path d="M1662,11348C1645,11331 1647,11300 1667,11293C1678,11289 1691,11296 1707,11316C1719,11332 1730,11348 1730,11353C1730,11365 1675,11361 1662,11348Z" style="fill:white;"/>
        </g>
        <g transform="matrix(0.1,0,0,-0.1,0,1280)">
            <path d="M1042,11263C1035,11261 1025,11250 1020,11240C1012,11225 1014,11223 1043,11229C1061,11233 1075,11242 1075,11250C1075,11265 1061,11271 1042,11263Z" style="fill:white;"/>
        </g>
        <g transform="matrix(0.1,0,0,-0.1,0,1280)">
            <path d="M1602,11236C1573,11187 1567,11161 1580,11145C1599,11122 1628,11127 1655,11156C1685,11188 1687,11230 1662,11253C1635,11277 1624,11274 1602,11236Z" style="fill:white;"/>
        </g>
        <g transform="matrix(0.1,0,0,-0.1,0,1280)">
            <path d="M1225,11230C1213,11226 1198,11215 1191,11206C1179,11191 1181,11185 1205,11160C1221,11143 1239,11130 1245,11130C1263,11130 1308,11183 1315,11213C1322,11239 1321,11240 1284,11239C1262,11239 1236,11235 1225,11230Z" style="fill:white;"/>
        </g>
        <g transform="matrix(0.1,0,0,-0.1,0,1280)">
            <path d="M1360,11154C1344,11135 1356,11093 1383,11076C1423,11051 1458,11114 1424,11151C1403,11174 1377,11175 1360,11154Z" style="fill:white;"/>
        </g>
        <g transform="matrix(0.1,0,0,-0.1,0,1280)">
            <path d="M0,9067C0,9047 21,9030 46,9030C79,9030 84,9046 58,9064C31,9083 0,9085 0,9067Z" style="fill:white;"/>
        </g>
        <g transform="matrix(0.1,0,0,-0.1,0,1280)">
            <path d="M68,8869C48,8858 43,8796 60,8785C73,8777 126,8806 134,8826C151,8869 111,8895 68,8869Z" style="fill:white;"/>
        </g>
        <g transform="matrix(0.1,0,0,-0.1,0,1280)">
            <path d="M5025,6848C4981,6824 4969,6792 4996,6766C5035,6727 5090,6763 5090,6827C5090,6855 5086,6860 5068,6860C5055,6860 5036,6854 5025,6848Z" style="fill:white;"/>
        </g>
        <g transform="matrix(0.1,0,0,-0.1,0,1280)">
            <path d="M9797,5094C9785,5082 9789,5063 9810,5039L9829,5015L9830,5041C9830,5069 9808,5105 9797,5094Z" style="fill:white;"/>
        </g>
        <g transform="matrix(0.1,0,0,-0.1,0,1280)">
            <path d="M10370,4090C10370,4077 10377,4070 10390,4070C10403,4070 10410,4077 10410,4090C10410,4103 10403,4110 10390,4110C10377,4110 10370,4103 10370,4090Z" style="fill:white;"/>
        </g>
        <g transform="matrix(0.1,0,0,-0.1,0,1280)">
            <path d="M11293.4,3065.41C11231.6,3095.83 11180.8,3146.15 11135.9,3218.02C11127.2,3232.71 11119.8,3249.24 11114.3,3267.23L11103.3,3306.15L11097.7,3343.97C11086.4,3434.41 11102.6,3535.84 11145.1,3599L11187,3653.76L11212.3,3678.25C11245.2,3710.87 11283.7,3732.45 11344.9,3758.05L11361.6,3764.2C11390.5,3776.08 11415.8,3783.37 11440.4,3786.58C11439.2,3820.08 11433.2,3834.01 11418,3860C11404,3885 11389,3920 11385,3937C11378,3972 11339,4010 11310,4010C11300,4010 11276,3992 11256,3970C11236,3948 11220,3926 11220,3922C11220,3917 11231,3904 11245,3892C11259,3880 11270,3865 11270,3858C11270,3839 11172,3750 11151,3750C11123,3750 11100,3723 11100,3691C11100,3675 11090,3654 11075,3640C11059,3625 11050,3606 11050,3587C11050,3559 11048,3558 11019,3564C10982,3571 10950,3556 10950,3531C10950,3507 10927,3488 10903,3492C10890,3494 10884,3488 10882,3470C10877,3433 10855,3414 10785,3386C10750,3372 10707,3352 10688,3340C10670,3329 10645,3320 10634,3320C10622,3320 10601,3311 10586,3299C10571,3288 10547,3275 10532,3271C10509,3265 10505,3258 10502,3224C10500,3200 10490,3175 10475,3160C10443,3125 10424,3085 10405,3010C10386,2936 10391,2908 10431,2863C10447,2845 10462,2817 10466,2802C10469,2787 10476,2762 10481,2746C10498,2693 10491,2628 10465,2585C10430,2527 10422,2510 10410,2463C10403,2435 10382,2401 10346,2363C10317,2331 10285,2291 10276,2273C10249,2220 10255,2155 10295,2080C10319,2032 10332,1991 10339,1934C10360,1769 10367,1750 10429,1692C10460,1663 10499,1636 10516,1631C10584,1612 10697,1652 10814,1735C10886,1786 10892,1797 10915,1929C10924,1981 10940,2031 10959,2063C10978,2096 10995,2148 11005,2204C11016,2262 11031,2307 11048,2332C11067,2361 11074,2387 11076,2427C11078,2473 11083,2487 11108,2514C11136,2542 11155,2585 11196,2710C11204,2734 11222,2766 11236,2781C11267,2814 11279,2862 11280,2956C11280,2975.91 11281,2994.89 11283.2,3013.08L11293.4,3065.41Z" style="fill:white;"/>
        </g>
        <g transform="matrix(0.1,0,0,-0.1,0,1280)">
            <path d="M12472,2590C12450,2581 12420,2527 12420,2495C12420,2466 12458,2480 12499,2525C12539,2568 12550,2590 12531,2590C12526,2590 12516,2592 12508,2594C12501,2597 12485,2595 12472,2590Z" style="fill:white;"/>
        </g>
        <g transform="matrix(0.1,0,0,-0.1,0,1280)">
            <path d="M12097,2415C12071,2390 12087,2368 12129,2372C12160,2375 12165,2378 12165,2400C12165,2420 12159,2426 12139,2428C12124,2430 12105,2424 12097,2415Z" style="fill:white;"/>
        </g>
    </g>
</svg>
